<?xml version="1.0" encoding="UTF-8"?>
<!DOCTYPE svg PUBLIC "-//W3C//DTD SVG 1.1//EN" "http://www.w3.org/Graphics/SVG/1.1/DTD/svg11.dtd">
<!-- Creator: CorelDRAW 2021 (64-Bit) -->
<svg xmlns="http://www.w3.org/2000/svg" xml:space="preserve" width="0.488283in" height="0.509307in" version="1.1" style="shape-rendering:geometricPrecision; text-rendering:geometricPrecision; image-rendering:optimizeQuality; fill-rule:evenodd; clip-rule:evenodd"
viewBox="0 0 31.97 33.35"
 xmlns:xlink="http://www.w3.org/1999/xlink"
 xmlns:xodm="http://www.corel.com/coreldraw/odm/2003">
 <defs>
  <style type="text/css">
   <![CDATA[
    .fil1 {fill:navy}
    .fil0 {fill:navy;fill-rule:nonzero}
   ]]>
  </style>
 </defs>
 <g id="Layer_x0020_1">
  <metadata id="CorelCorpID_0Corel-Layer"/>
  <g id="_2673874776336">
   <path class="fil0" d="M7.12 32.1c-0.81,-0.84 -1.21,-1.85 -1.21,-3.02l0 -12.69c0,-1.23 0.4,-2.24 1.21,-3.03 0.81,-0.79 1.79,-1.19 2.96,-1.19 7.62,0.04 2.97,-0.04 8.97,-0.04 0.48,0 1.08,0.07 1.8,0.2 1.23,0.26 2.31,0.73 3.25,1.42 0.93,0.68 1.65,1.52 2.14,2.49 0.49,0.97 0.73,2 0.73,3.08l0 9.76c0,0.79 -0.19,1.5 -0.56,2.14 -0.38,0.64 -0.88,1.15 -1.52,1.53 -0.63,0.39 -1.34,0.58 -2.1,0.59 -1.18,0 -2.18,-0.4 -3.02,-1.21 -0.84,-0.81 -1.25,-1.82 -1.25,-3.01l0 -7.92c0,-0.59 -0.21,-1.08 -0.63,-1.48 -0.39,-0.45 -0.89,-0.68 -1.47,-0.68 -0.59,0 -1.09,0.2 -1.48,0.61 -0.44,0.47 -0.65,0.98 -0.65,1.55l0 7.89c0,1.18 -0.41,2.19 -1.25,3.02 -0.8,0.8 -1.77,1.2 -2.92,1.2 -1.16,0 -2.15,-0.4 -2.99,-1.2l0 -0.01z"/>
   <polygon class="fil1" points="-0,11.11 15.89,0 16.38,0 31.97,10.94 29.53,14.41 16.14,5.03 2.45,14.58 "/>
  </g>
 </g>
</svg>
